<svg xmlns="http://www.w3.org/2000/svg" xmlns:xlink="http://www.w3.org/1999/xlink" width="1233.78" height="982.06"><g transform="translate(-99 -139)"><path d="M0 0h1500v1500H0z" fill="#fff"/><path d="M774.17 160c16.57 0 30 13.43 30 30s-13.43 30-30 30H584.5c-16.57 0-30-13.43-30-30s13.43-30 30-30z" stroke="#5e5e5e" stroke-width="2" fill="#f2f2ff"/><use xlink:href="#a" transform="matrix(1,0,0,1,559.4999999999902,165) translate(38.580246913580254 30.52777777777778)"/><use xlink:href="#b" transform="matrix(1,0,0,1,559.4999999999902,165) translate(80.55555555555557 30.52777777777778)"/><use xlink:href="#c" transform="matrix(1,0,0,1,559.4999999999902,165) translate(165.679012345679 30.52777777777778)"/><path d="M240 617.02c0 6.63-26.86 12-60 12s-60-5.37-60-12v-96c0-6.63 26.86-12 60-12s60 5.37 60 12z" stroke="#5e5e5e" stroke-width="2" fill="#ffd6f5"/><path d="M240 521.02c0 6.63-26.86 12-60 12s-60-5.37-60-12" stroke="#5e5e5e" stroke-width="2" fill="none"/><use xlink:href="#d" transform="matrix(1,0,0,1,125,538.0200711611539) translate(5.679012345679013 33.90277777777778)"/><use xlink:href="#e" transform="matrix(1,0,0,1,125,538.0200711611539) translate(7.5 60.56944444444445)"/><path d="M554.5 266a6 6 0 0 1 6-6h237.67a6 6 0 0 1 6 6v48a6 6 0 0 1-6 6H560.5a6 6 0 0 1-6-6z" stroke="#5e5e5e" stroke-width="2" fill="#f2f2ff"/><use xlink:href="#f" transform="matrix(1,0,0,1,566.4999999999902,272) translate(50.12962962962963 22.40277777777778)"/><use xlink:href="#g" transform="matrix(1,0,0,1,566.4999999999902,272) translate(126.61111111111111 22.40277777777778)"/><path d="M679.33 222v18.5" stroke="#5e5e5e" stroke-width="2" fill="none"/><path d="M680.33 222.03h-2V221h2z" stroke="#5e5e5e" stroke-width=".05" fill="#5e5e5e"/><path d="M679.33 255.76l-4.63-14.26h9.27z" stroke="#5e5e5e" stroke-width="2" fill="#5e5e5e"/><use xlink:href="#h" transform="matrix(1,0,0,1,691.9685882489575,229.20002499999998) translate(0 14.4)"/><path d="M674.7 403.33a7.28 7.28 0 0 1 9.26 0l51.4 42.36a4.95 4.95 0 0 1 0 7.63l-51.4 42.36a7.28 7.28 0 0 1-9.26 0l-51.4-42.37a4.95 4.95 0 0 1 0-7.64z" stroke="#5e5e5e" stroke-width="2" fill="#f2f2ff"/><use xlink:href="#i" transform="matrix(1,0,0,1,623.6666666666665,404.51003557269166) translate(17.88154320987654 49.05902777777778)"/><path d="M679.33 322v60.16" stroke="#e81313" stroke-width="2" fill="none"/><path d="M680.33 322.03h-2V321h2z" stroke="#e81313" stroke-width=".05" fill="#e81313"/><path d="M679.33 397.43l-4.63-14.27h9.27z" stroke="#e81313" stroke-width="2" fill="#e81313"/><use xlink:href="#j" transform="matrix(1,0,0,1,691.9685882489574,339.2307623153573) translate(0 14.4)"/><use xlink:href="#k" transform="matrix(1,0,0,1,691.9685882489574,339.2307623153573) translate(62.900000000000006 14.4)"/><use xlink:href="#l" transform="matrix(1,0,0,1,691.9685882489574,339.2307623153573) translate(0 36)"/><use xlink:href="#m" transform="matrix(1,0,0,1,691.9685882489574,339.2307623153573) translate(20.95 36)"/><use xlink:href="#n" transform="matrix(1,0,0,1,691.9685882489574,339.2307623153573) translate(69.85 36)"/><path d="M554.5 545.02a6 6 0 0 1 6-6h237.67a6 6 0 0 1 6 6v48a6 6 0 0 1-6 6H560.5a6 6 0 0 1-6-6z" stroke="#5e5e5e" stroke-width="2" fill="#f2f2ff"/><use xlink:href="#f" transform="matrix(1,0,0,1,566.4999999999902,551.0200711453833) translate(59.358024691358025 22.40277777777778)"/><use xlink:href="#o" transform="matrix(1,0,0,1,566.4999999999902,551.0200711453833) translate(135.8395061728395 22.40277777777778)"/><path d="M679.33 499.36v20.16" stroke="#e81313" stroke-width="2" fill="none"/><path d="M679.33 498.36l1-.07v1.08h-2v-1.1z" stroke="#e81313" stroke-width=".05" fill="#e81313"/><path d="M679.33 534.78l-4.63-14.26h9.27z" stroke="#e81313" stroke-width="2" fill="#e81313"/><use xlink:href="#p" transform="matrix(1,0,0,1,691.9685882489574,507.52264217486737) translate(0 14.222222222222223)"/><path d="M951.38 888.8a6 6 0 0 1 6-6h237.67a6 6 0 0 1 6 6v48a6 6 0 0 1-6 6H957.38a6 6 0 0 1-6-6z" stroke="#5e5e5e" stroke-width="2" fill="#f2f2ff"/><use xlink:href="#q" transform="matrix(1,0,0,1,963.3831639612827,894.7941560894111) translate(43.925925925925924 22.40277777777778)"/><use xlink:href="#r" transform="matrix(1,0,0,1,963.3831639612827,894.7941560894111) translate(103.12345679012344 22.40277777777778)"/><path d="M242 569.02h2.9m3.9 0h5.8m3.9 0h5.82m3.88 0h5.82m3.88 0h5.82m3.88 0h5.83m3.88 0h5.83m3.88 0h5.83m3.88 0h5.84m3.88 0h5.82m3.88 0h5.82m3.88 0h5.82m3.9 0h5.8m3.9 0h5.8m3.9 0h5.8m3.9 0h5.82m3.88 0h5.96m4.07 0h6.1m4.08 0h6.1m4.08 0h6.1m4.08 0h6.12m4.07 0h6.1m4.07 0h6.1m4.08 0h6.1m4.08 0h6.1m4.07 0h6.1m4.08 0h6.1m4.08 0h6.1m4.08 0h6.1m4.08 0h6.1m4.08 0h3.05" stroke="#5e5e5e" stroke-width="2" fill="none"/><path d="M242.03 570.02H241v-2h1.03z" stroke="#5e5e5e" stroke-width=".05" fill="#5e5e5e"/><path d="M551.53 569.02l-12.9 7.64v-15.28z" stroke="#5e5e5e" stroke-width="2" fill="#fff"/><use xlink:href="#s" transform="matrix(1,0,0,1,356.77808324791994,543.4200711611539) translate(0 14.4)"/><path d="M1171.05 539.02c16.57 0 30 13.43 30 30s-13.43 30-30 30H981.38c-16.56 0-30-13.43-30-30s13.44-30 30-30z" stroke="#5e5e5e" stroke-width="2" fill="#e3fae3"/><use xlink:href="#t" transform="matrix(1,0,0,1,956.3831639612827,544.0200711611539) translate(23.209876543209887 30.52777777777778)"/><use xlink:href="#b" transform="matrix(1,0,0,1,956.3831639612827,544.0200711611539) translate(95.92592592592592 30.52777777777778)"/><use xlink:href="#c" transform="matrix(1,0,0,1,956.3831639612827,544.0200711611539) translate(181.04938271604937 30.52777777777778)"/><path d="M1311.8 338c0 6.63-26.88 12-60 12-33.15 0-60-5.37-60-12v-96c0-6.63 26.85-12 60-12 33.12 0 60 5.37 60 12z" stroke="#5e5e5e" stroke-width="2" fill="#ffd6f5"/><path d="M1311.8 242c0 6.63-26.88 12-60 12-33.15 0-60-5.37-60-12" stroke="#5e5e5e" stroke-width="2" fill="none"/><use xlink:href="#u" transform="matrix(1,0,0,1,1196.7846389607835,259) translate(14.96913580246914 33.90277777777778)"/><use xlink:href="#v" transform="matrix(1,0,0,1,1196.7846389607835,259) translate(25.370370370370374 60.56944444444445)"/><path d="M1189.8 290h-3.02m-4 0h-6.03m-4 0h-6.02m-4 0h-6.02m-4 0h-6.02m-4 0h-6.02m-4 0h-6.02m-4 0h-6.03m-4 0h-6m-4.02 0h-6m-4.02 0h-6.02m-4 0h-6.02m-4 0h-6.03m-4 0h-6.03m-4 0h-6.02m-4 0h-6.03m-4 0h-6.02m-4 0h-6.02m-4 0h-6.03m-4 0h-6.02m-4 0h-6.02m-4 0h-6.02m-4 0h-6.02m-4 0h-6.02m-4 0h-6.03m-4 0h-6m-4.02 0h-6m-4.02 0h-6.02m-4 0h-6.02m-4 0h-6.02m-4 0h-6.03m-4 0h-6.02m-4 0H866m-4 0H856m-4 0h-6.02m-4 0h-6.03m-4 0h-6.02m-4 0h-3.02" stroke="#5e5e5e" stroke-width="2" fill="none"/><path d="M1190.8 291h-1.04v-2h1.03z" stroke="#5e5e5e" stroke-width=".05" fill="#5e5e5e"/><path d="M807.13 290l12.9-7.64v15.28z" stroke="#5e5e5e" stroke-width="2" fill="#fff"/><use xlink:href="#s" transform="matrix(1,0,0,1,1001.4548734382798,264.4) translate(0 14.4)"/><path d="M674.7 632.84a7.28 7.28 0 0 1 9.26 0l51.4 42.36a4.95 4.95 0 0 1 0 7.64l-51.4 42.36a7.28 7.28 0 0 1-9.26 0l-51.4-42.36a4.95 4.95 0 0 1 0-7.64z" stroke="#5e5e5e" stroke-width="2" fill="#f2f2ff"/><use xlink:href="#i" transform="matrix(1,0,0,1,623.6666666666665,634.0200711611539) translate(17.88154320987654 49.05902777777778)"/><path d="M679.33 601.02v20.16" stroke="#5e5e5e" stroke-width="2" fill="none"/><path d="M680.33 601.05h-2v-1.03h2z" stroke="#5e5e5e" stroke-width=".05" fill="#5e5e5e"/><path d="M679.33 628.2l-7.63-12.9h15.27z" stroke="#5e5e5e" stroke-width="2" fill="#5e5e5e"/><path d="M739.17 679.02h99.1a6 6 0 0 0 6-6v-98a6 6 0 0 1 6-6h91.12" stroke="#008a0e" stroke-width="2" fill="none"/><path d="M739.2 680.02h-1.12l.1-1-.1-1h1.12z" stroke="#008a0e" stroke-width=".05" fill="#008a0e"/><path d="M948.42 569.02l-12.9 7.64v-15.28z" stroke="#008a0e" stroke-width="2" fill="#008a0e"/><use xlink:href="#w" transform="matrix(1,0,0,1,746.4860112778314,653.4200711611539) translate(0 14.4)"/><path d="M739.17 449.5h99.1a6 6 0 0 1 6 6v107.52a6 6 0 0 0 6 6h91.12" stroke="#008a0e" stroke-width="2" fill="none"/><path d="M739.2 450.5h-1.12l.1-1-.1-1h1.12z" stroke="#008a0e" stroke-width=".05" fill="#008a0e"/><path d="M948.42 569.02l-12.9 7.64v-15.28z" stroke="#008a0e" stroke-width="2" fill="#008a0e"/><use xlink:href="#w" transform="matrix(1,0,0,1,743.5668291063623,423.91003557269164) translate(0 14.4)"/><path d="M554.5 771.9a6 6 0 0 1 6-6h237.67a6 6 0 0 1 6 6v48a6 6 0 0 1-6 6H560.5a6 6 0 0 1-6-6z" stroke="#5e5e5e" stroke-width="2" fill="#f2f2ff"/><use xlink:href="#x" transform="matrix(1,0,0,1,566.4999999999902,777.9071136252825) translate(13.21604938271605 22.40277777777778)"/><use xlink:href="#y" transform="matrix(1,0,0,1,566.4999999999902,777.9071136252825) translate(57.47530864197531 22.40277777777778)"/><use xlink:href="#z" transform="matrix(1,0,0,1,566.4999999999902,777.9071136252825) translate(142.53703703703704 22.40277777777778)"/><path d="M679.33 728.87v27.05" stroke="#e81313" stroke-width="2" fill="none"/><path d="M679.33 727.87l1-.07v1.1h-2v-1.1z" stroke="#e81313" stroke-width=".05" fill="#e81313"/><path d="M679.33 762.94l-7.63-12.9h15.27z" stroke="#e81313" stroke-width="2" fill="#e81313"/><use xlink:href="#A" transform="matrix(1,0,0,1,691.9685882489575,732.3762075465888) translate(0 14.4)"/><path d="M674.7 866.6a7.28 7.28 0 0 1 9.26 0l51.4 42.38a4.95 4.95 0 0 1 0 7.63L683.97 959a7.28 7.28 0 0 1-9.26 0l-51.4-42.37a4.95 4.95 0 0 1 0-7.62z" stroke="#5e5e5e" stroke-width="2" fill="#f2f2ff"/><use xlink:href="#i" transform="matrix(1,0,0,1,623.6666666666665,867.7941560894111) translate(17.88154320987654 49.05902777777778)"/><path d="M679.33 827.9v27.05" stroke="#5e5e5e" stroke-width="2" fill="none"/><path d="M680.33 827.93h-2v-1.02h2z" stroke="#5e5e5e" stroke-width=".05" fill="#5e5e5e"/><path d="M679.33 861.98l-7.63-12.9h15.27z" stroke="#5e5e5e" stroke-width="2" fill="#5e5e5e"/><path d="M739.17 912.8H941.4" stroke="#008a0e" stroke-width="2" fill="none"/><path d="M739.2 913.8h-1.12l.1-1-.1-1h1.12z" stroke="#008a0e" stroke-width=".05" fill="#008a0e"/><path d="M948.42 912.8l-12.9 7.63v-15.27z" stroke="#008a0e" stroke-width="2" fill="#008a0e"/><use xlink:href="#B" transform="matrix(1,0,0,1,739.047125373237,887.1941560894112) translate(0 14.4)"/><path d="M1203.06 912.77l3-.06m4.03-.07l.88-.02 5.13-.3m4.02-.3l5.82-.62.17-.03m4-.58l2.2-.33 3.73-.7m3.93-.84l3.34-.78 2.5-.7m3.86-1.15l2.9-.94 2.8-1.04m3.72-1.5l1.46-.62 3.6-1.7.42-.22m3.55-1.88l2.63-1.5 2.53-1.63m3.32-2.27l.06-.04 2.74-2.1 1.94-1.58m3-2.67l.22-.2 2.42-2.37 1.62-1.7m2.65-3.03l.33-.37 2.18-2.76 1.2-1.63m2.27-3.3l.7-1.07 2-3.3.44-.8m1.9-3.54l1.47-2.94 1.12-2.5m1.54-3.73l.9-2.27 1.18-3.38m1.22-3.83l.88-2.92.74-2.9m.96-3.9l1.18-5.58.06-.33m.67-3.96l.5-3.05.38-2.9m.5-4l.2-1.48.37-4.5m.33-4.02l.1-1.14.2-4.87m.16-4.02l.1-2.4v-3.62m0-4.02l-.02-5.93v-.1m-.17-4l-.25-6.04m-.17-4.03l-.1-2.53-.3-3.48m-.35-4l-.5-6m-.35-4.02l-.33-3.93-.27-2.06m-.5-4l-.77-5.97m-.5-4l-.76-5.97m-.5-4l-.47-3.56-.4-2.4m-.7-3.95l-1-5.96m-.7-3.96l-1-5.94m-.7-3.97l-1-5.94m-.7-3.96l-1-5.94m-.7-3.97l-.5-2.92-.58-3m-.8-3.95l-1.15-5.93m-.78-3.94l-1.16-5.92m-.77-3.93l-1.16-5.92m-.78-3.94l-1.18-5.9m-.77-3.95l-1.17-5.92m-.78-3.94l-1.16-5.93m-.78-3.95l-1.16-5.9m-.78-3.96l-1.16-5.9m-.78-3.96l-1.16-5.9m-.78-3.96l-1.16-5.9m-.78-3.96l-1.17-5.9m-.77-3.96l-1.17-5.92m-.78-3.94l-1.17-5.92m-.78-3.94l-1.16-5.92m-.77-3.94l-1.16-5.92m-.78-3.94l-1.17-5.92m-.78-3.94l-1.16-5.92m-.8-3.94l-1.16-5.92m-.77-3.94l-1.17-5.92m-.77-3.95l-1.17-5.9m-.78-3.96l-1.16-5.9m-.78-3.96l-.42-2.15-.5-3.8m-.5-3.98l-.76-5.98m-.5-4l-.77-5.98m-.52-4l-.76-5.97m-.44-4l-.5-6m-.35-4l-.5-6.02m-.35-4l-.46-5.47-.03-.55m-.18-4l-.25-6.03m-.17-4l-.13-3.03" stroke="#5e5e5e" stroke-width="2" stroke-linejoin="round" fill="none"/><path d="M1203.1 913.77l-1.05.02v-2l1-.03z" stroke="#5e5e5e" stroke-width=".05" fill="#5e5e5e"/><path d="M1251.83 352.96l7.92 12.74-15.27.34z" stroke="#5e5e5e" stroke-width="2" fill="#fff"/><path d="M1076.22 880.8V609" stroke="#5e5e5e" stroke-width="2" fill="none"/><path d="M1077.22 881.8h-2v-1.03h2z" stroke="#5e5e5e" stroke-width=".05" fill="#5e5e5e"/><path d="M1076.22 602l7.63 12.9h-15.27z" stroke="#5e5e5e" stroke-width="2" fill="#5e5e5e"/><path d="M596.2 1119l-3.8.06-2.2-.05.03-1.98 2.17.04 3.77-.07zm-9.96-2.07l-.04 2-5.98-.12.04-2zm19.93 1.9l-5.98.1-.04-2 5.98-.1zm9.97-.2l-5.98.12-.03-2 5.98-.1zm-39.87-1.9l-.04 2-5.98-.13.04-2zm49.84 1.74l-5.97.1-.04-2 5.97-.1zm-64.27-2.04l4.48.1-.03 2-4.52-.1-1.5-.1.12-2zm74.25 1.87l-5.98.1-.04-2 5.98-.1zm9.96-.18l-5.98.1-.03-2 5.98-.1zm-89.65-2.03l-.13 1.98-5.97-.37.12-2zm99.6 1.85l-5.97.1-.03-2 5.98-.1zm9.98-.18l-5.98.1-.04-2 5.98-.1zm9.97-.17l-5.98.1-.04-2 5.98-.1zm9.96-.18l-5.97.1-.03-2 5.98-.1zm-139.46-1.96l-.12 2-5.97-.38.12-2zm149.44 1.8l-5.98.1-.03-2 5.98-.1zm9.97-.2l-5.98.12-.04-2 5.98-.1zm9.97-.16l-5.98.1-.04-2 5.98-.1zm-182.7-2.28l3.37.22-.13 2-3.4-.22-2.6-.27.2-2zm192.7 1.96l-3.53.2-2.5.05-.03-2 2.44-.04 3.5-.2zm9.95-.56l-5.97.34-.1-2 5.96-.33zm-209.16-2.08l-.2 2-5.95-.63.2-1.98zm219.13 1.52l-5.98.34-.1-2 5.96-.34zm9.95-.56l-5.97.34-.1-2 5.97-.34zm-239-2l-.2 2-5.94-.63.2-2zm248.95 1.44l-5.97.33-.1-2 5.96-.33zm9.96-.56l-6 .33-.1-1.98 5.97-.34zm-269.3-1.97l.48.06-.2 2-.54-.06-5.43-.8.3-1.98zm279.24 1.4l-5.97.35-.12-2 5.98-.33zm9.95-.55l-5.98.34-.1-2 5.96-.35zm9.95-.56l-5.98.33-.1-2 5.96-.34zm-308.5-1.66l-.3 1.97-5.9-.86.3-1.98zm318.45 1.1l-5.97.32-.12-2 6-.33zm9.95-.58l-5.97.34-.1-2 5.96-.33zm-344.04-2.83l5.8.85-.3 1.98-5.82-.86-.14-.02.38-1.97zm354 2.27l-5.97.34-.1-2 5.96-.33zm10-.68l-2.82.28-3.2.18-.1-2 3.14-.18 2.77-.27zm9.9-.98l-5.94.6-.2-2 5.96-.6zm-377.9-1.38l-.38 1.97-5.87-1.12.37-1.96zm387.83.4l-5.95.6-.2-2 5.96-.6zm-397.62-2.26l-.37 1.96-5.87-1.12.37-1.96zm407.55 1.3l-5.95.57-.2-2 5.96-.57zm9.93-1l-5.96.6-.2-2 5.96-.58zm-427.22-2.18l-.46 1.95-5.82-1.36.45-1.94zm437.14 1.2l-5.96.6-.2-2 5.96-.58zm9.92-.97l-5.96.6-.2-2 5.96-.6zm9.92-.98l-5.95.6-.2-2 5.94-.6zm-466.7-1.52l-.44 1.95-5.83-1.37.46-1.95zm476.62.55l-5.95.58-.2-2 5.96-.57zm9.92-.98l-5.95.6-.2-2 5.95-.6zm-497.9-2.23l1.67.38-.46 1.94-1.7-.4-4.13-1.14.54-1.93zm507.82.9l-5.92.85-.28-1.98 5.93-.84zm9.88-1.38l-5.93.84-.28-2 5.93-.82zm-525.6-1.74l-.55 1.92-5.76-1.6.53-1.93zm535.47.35l-5.93.83-.28-1.98 5.93-.83zm9.87-1.4l-5.92.84-.28-1.98 5.92-.85zm-557.25-2.27l2.3.64-.54 1.92-2.34-.65-3.43-1.1.62-1.9zm567.12.88l-5.93.84-.28-1.98 5.9-.84zm9.86-1.4l-5.92.84-.28-1.98 5.92-.83zm-584.17-1.8l-.63 1.9-5.7-1.86.63-1.9zm594.03.42l-5.92.83-.27-2 5.92-.82zm9.9-1.53l-3.12.57-2.82.4-.28-1.98 2.8-.4 3.06-.56zm-615.07-2.52l1.65.55-.6 1.9-1.7-.55-3.98-1.48.7-1.87zm624.87.72l-5.88 1.1-.37-1.98 5.9-1.1zm9.8-1.8l-5.88 1.08-.36-1.97 5.87-1.08zm-642.35-1.76l-.7 1.88-5.6-2.1.7-1.86zm652.16-.05l-5.88 1.1-.37-1.97 5.88-1.1zm9.8-1.8l-5.88 1.1-.36-1.98 5.88-1.08zm-671.26-1.6l-.78 1.84-5.5-2.32.76-1.84zm681.07-.2l-5.9 1.1-.35-1.98 5.88-1.1zm9.8-2l-4.44 1-1.43.28-.36-1.97 1.4-.24 4.4-1zm-700.06-1.66l-.8 1.84-5.5-2.32.77-1.84zm709.77-.55l-5.83 1.32-.44-1.95 5.83-1.33zm9.72-2.22l-5.84 1.32-.44-1.95 5.83-1.33zm-728.6-1.2l-.87 1.8-5.4-2.54.84-1.8zm738.3-1.02l-5.82 1.33-.44-1.96 5.83-1.33zm9.74-2.2l-5.84 1.32-.44-1.95 5.83-1.33zm-759.68-2.25l2.6 1.23-.85 1.8-2.63-1.23-2.75-1.44.93-1.77zm769.35-.32l-5.76 1.57-.53-1.93 5.78-1.57zm9.63-2.62l-5.77 1.57-.53-1.93 5.77-1.57zm-785.22-.32l-.9 1.78-5.3-2.78.9-1.77zm794.85-2.3l-5.77 1.57-.53-1.92 5.77-1.57zm-803.6-2.37l-1 1.73-5.18-3 1-1.72zm813.23-.35l-2.06.66-3.72 1-.53-1.92 3.68-1 2.03-.64zm9.5-3.02l-5.7 1.82-.6-1.9 5.7-1.82zm-833.35-2.76l2 1.15-1 1.72-2.04-1.17-3.12-1.97 1.07-1.7zm842.85-.26l-5.7 1.82-.6-1.9 5.7-1.82zm9.5-3.16l-3.15 1.15-2.55.8-.6-1.9 2.5-.8 3.1-1.13zm-858.8-.67l-1.06 1.7-4.98-3.16 1.07-1.7zm868.16-2.75l-5.62 2.05-.68-1.88 5.62-2.04zM311.3 1044l-1.14 1.64-4.92-3.42 1.14-1.64zm885.84-.74l-.33.14-5.3 1.94-.7-1.88 5.3-1.93.28-.12zm9.22-3.8l-5.53 2.28-.76-1.85 5.53-2.3zm-903.2-1.17l-1.2 1.6-4.76-3.63 1.2-1.6zm912.42-2.74l-1.67.78-3.86 1.6-.76-1.86 3.83-1.58 1.64-.75zm9.05-4.18l-5.43 2.5-.84-1.8 5.43-2.52zm-930.37.15l.97.74-1.2 1.6-1-.77-3.68-3.04 1.27-1.54zm939.33-4.62l-5.33 2.75-.92-1.78 5.32-2.73zm-948.44-2.9l2.4 1.98-1.3 1.54-2.4-2-2.15-1.93 1.35-1.5zm957.24-1.83l-3.88 2.2-1.4.72-.9-1.8 1.35-.68 3.84-2.2zm-965.7-5.78l3.4 3.04-1.35 1.48-3.4-3.07-1.04-1 1.4-1.43zm974.3.66l-3.6 2.26-1.54.88-.98-1.74 1.5-.86 3.57-2.23zm8.36-5.5l-4.7 3.22-.27.17-1.07-1.7.23-.14 4.67-3.2zm-990.52-2.87l4.02 3.93-1.4 1.43-4.05-3.97-.23-.26 1.46-1.37zm998.55-3.2l-1.83 1.48-2.94 2.2-1.2-1.6 2.9-2.17 1.8-1.45zm-1001.5.06l-1.46 1.37-4.1-4.36 1.46-1.37zm1009-6.72l-1.75 1.7-2.67 2.38-1.33-1.5 2.64-2.35 1.72-1.67zm-1015.7-.62l-1.5 1.3-3.9-4.52 1.5-1.3zm1022.5-6.84l-1.05 1.32-2.1 2.4-.82.86-1.45-1.38.78-.82 2.06-2.34 1.03-1.3zm-1028.88-.75l-1.56 1.24-3.72-4.7 1.57-1.23zm1034.5-7.66l-.86 1.56-1.14 1.85-1.17 1.75-1.66-1.12 1.14-1.7 1.1-1.78.84-1.53zm-1040.57-.2l-1.62 1.18-3.5-4.84 1.6-1.16zM1291 973.43l-.06.3-.36 1.37-.44 1.4-.52 1.47-.52 1.3-1.85-.76.5-1.23.5-1.4.4-1.33.34-1.28.05-.27zm-1050.4.72l.37.55-1.65 1.12-.4-.57-2.87-4.47 1.68-1.08zm1051.06-10.3l.1 1.17.04 1.2v1.2l-.07 1.2-.07.76-2-.18.07-.7.06-1.14v-1.12l-.04-1.1-.1-1.08-.07-.62 1.98-.24zm-1056.54 1.8l.45.7-1.68 1.1-.5-.75-2.6-4.45 1.74-1zm1053.95-11.16l.52 1.2.45 1.18.4 1.17.32 1.08-1.9.58-.32-1.04-.38-1.1-.43-1.1-.5-1.12-.5-1.05 1.8-.87zm-1059.3 2.03l.75 1.3-1.72 1-.78-1.3-2.1-3.98 1.76-.94zm1053.17-11.17l1.2 1.4 1.1 1.4.94 1.32.27.4-1.67 1.1-.24-.37-.9-1.26-1.04-1.3-1.15-1.36-.26-.28 1.46-1.36zm-1058.4 1.34l1.27 2.4-1.75.93-1.3-2.43-1.4-2.96 1.8-.85zm1051.77-7.58l2 1.65 1.5 1.37-1.34 1.48-1.48-1.35-1.92-1.6-1.1-.85 1.2-1.6zM219.45 936l2 4.15-1.82.87-2-4.2-.55-1.26 1.84-.8zm1049.03-2.38l2.98 1.9.46.33-1.14 1.63-.42-.3-2.9-1.86-1.68-.97 1-1.73zm-7.46-4.14l2.25 1.18-.93 1.77-2.2-1.17-3.12-1.48.86-1.8zM217.36 931.1l-1.84.8-2.35-5.5 1.84-.8zm1033.44-6.22l3.38 1.45-.78 1.84-3.35-1.43-2.15-.8.7-1.88zm-6.54-2.47l.62.25-.7 1.87-.6-.22-5.04-1.67.63-1.9zm-1030.72-.46l-1.87.7-2.12-5.58 1.87-.7zm1021.8-2.42l-.56 1.92-5.75-1.64.54-1.92zm-9.66-2.68l-.46 1.94-5.82-1.4.47-1.94zm-9.83-2.36l-.38 1.96-5.78-1.13.38-1.95zm-9.68-1.9l-.4 1.96-2.92-.57.38-1.96zm-996.57-1.02l.4 1.06-1.86.7-.42-1.1-1.53-4.6 1.9-.62zm-2.77-8.35l-1.9.64-1.88-5.67 1.9-.63zm-2.97-9.46l-1.92.55-1.65-5.76 1.9-.55zm-3.48-12.15l.74 2.56-1.93.55-.75-2.6-.78-3.22 1.95-.47zm-1.7-7.06l-1.94.47-1.4-5.8 1.94-.48zm-2.6-10.83l.27 1.15-1.95.47-.28-1.18-.93-4.72 1.95-.4zm-1.7-8.58l-1.96.38-1.16-5.87 1.96-.38zm-2.35-11.93l.42 2.14-1.96.38-.44-2.18-.58-3.75 1.98-.32zm-1.18-7.66l-1.98.3-.9-5.9 1.97-.3zm-1.52-9.85l-1.97.3-.9-5.92 1.96-.3zm-1.37-9.84l-2 .22-.65-5.95 2-.22zm-1.1-9.9l-2 .2-.65-5.94 2-.22zm-1.1-9.92l-2 .22-.65-5.94 2-.23zm-.93-9.88l-2 .14-.4-5.97 2-.14zm-.7-9.95l-1.98.15-.4-5.97 2-.13zm-.67-9.93l-2 .13-.4-5.96 2-.14zm-.95-13.92l.28 3.97-2 .14-.27-4-.04-2.02 2-.05zm-.14-5.94l-2 .06-.15-5.98 2-.05zm-.25-9.96l-2 .05-.14-6 2-.04zm-.24-9.97l-2 .05-.15-5.97 2.02-.05zm-.25-9.96l-1.98.06-.15-5.98 2-.05zm-.23-9.96l-2 .05-.15-6 2-.04zm-.38-15.92v.77l.12 5.18-2 .05-.13-5.22v-.78zm0-9.97v6l-2-.02v-5.98zm0-9.97v6h-2v-6zm0-9.96v5.98h-2v-6zm0-9.97v5.98h-2v-6zm0-6.98v3h-2v-3z" stroke="#5e5e5e" stroke-width=".05" fill="#5e5e5e"/><path d="M1203.26 912l-.4 1.97-.8-.16v-2.02z" fill="#5e5e5e"/><path d="M1203.28 912l-.4 2-.86-.17v-2.1zm-1.2 1.8l.77.14.38-1.9-1.15-.24z" stroke="#5e5e5e" stroke-width=".05" fill="#5e5e5e"/><path d="M187.63 644.9h-15.27L180 632z" fill="#fff"/><path d="M189.4 645.9h-18.8L180 630zm-15.28-2h11.76l-5.88-9.95z" stroke="#5e5e5e" stroke-width=".05" fill="#5e5e5e"/><use xlink:href="#C" transform="matrix(1,0,0,1,1212.581980675614,892.7791306865922) translate(0 14.4)"/><path d="M774.17 1007.32c16.57 0 30 13.43 30 30 0 16.56-13.43 30-30 30H584.5c-16.57 0-30-13.44-30-30 0-16.57 13.43-30 30-30z" stroke="#5e5e5e" stroke-width="2" fill="#e3fae3"/><use xlink:href="#D" transform="matrix(1,0,0,1,559.4999999999902,1012.3157930168019) translate(29.506172839506178 30.52777777777778)"/><use xlink:href="#E" transform="matrix(1,0,0,1,559.4999999999902,1012.3157930168019) translate(102.22222222222221 30.52777777777778)"/><use xlink:href="#F" transform="matrix(1,0,0,1,559.4999999999902,1012.3157930168019) translate(147.09876543209876 30.52777777777778)"/><path d="M680.33 997.32h-2v-2.54h2zm0-24.14h-2v-10.54h2z" stroke="#e81313" stroke-width=".05" fill="#e81313"/><path d="M679.33 961.64l1-.07v1.1h-2v-1.1z" fill="#e81313"/><path d="M679.33 961.62l1.03-.07v1.14h-2.05v-1.15zm-.97 1.02h1.95v-1.04l-.97.07-.97-.07z" stroke="#e81313" stroke-width=".05" fill="#e81313"/><path d="M679.33 1004.35l-5.66-9.57H685z" fill="#e81313"/><path d="M679.33 1006.32l-6.82-11.54h2.33l4.5 7.6 4.5-7.6h2.33z" stroke="#e81313" stroke-width=".05" fill="#e81313"/><g><use xlink:href="#G" transform="matrix(1,0,0,1,667.858333536404,973.1792050426138) translate(0 14.4)"/></g><path d="M236.87 695.02a6 6 0 0 1 6-6h237.66a6 6 0 0 1 6 6v48a6 6 0 0 1-6 6H242.87a6 6 0 0 1-6-6z" stroke="#5e5e5e" stroke-width="2" fill="#dfe3e8"/><g><use xlink:href="#H" transform="matrix(1,0,0,1,248.86772555019633,701.0200711611539) translate(43.40123456790124 22.40277777777778)"/><use xlink:href="#I" transform="matrix(1,0,0,1,248.86772555019633,701.0200711611539) translate(125.9320987654321 22.40277777777778)"/></g><path d="M236.87 771.9a6 6 0 0 1 6-6h237.66a6 6 0 0 1 6 6v48a6 6 0 0 1-6 6H242.87a6 6 0 0 1-6-6z" stroke="#5e5e5e" stroke-width="2" fill="#dfe3e8"/><g><use xlink:href="#J" transform="matrix(1,0,0,1,248.86772555019633,777.9071136252825) translate(82.19753086419753 22.40277777777778)"/></g><path d="M236.87 848.8a6 6 0 0 1 6-6h237.66a6 6 0 0 1 6 6v48a6 6 0 0 1-6 6H242.87a6 6 0 0 1-6-6z" stroke="#5e5e5e" stroke-width="2" fill="#dfe3e8"/><g><use xlink:href="#K" transform="matrix(1,0,0,1,248.86772555019633,854.7941560894111) translate(55.71604938271605 22.40277777777778)"/></g><path d="M488.53 719.02h2.6m3.47 0h5.2m3.46 0h5.2m3.46 0h2.6l.94.07.9.2.88.37m2.62 2.63l.36.87.22.9.08.95v3.24m0 4.33v6.48m0 4.32v6.5m0 4.32v6.5m0 4.3v6.5m0 4.33v6.5m0 4.3v3.26l.07.95.2.9.37.88m2.62 2.62l.86.36.92.23.94.08h3.97m5.28 0h3.97" stroke="#5e5e5e" stroke-width="2" fill="none"/><path d="M488.56 720.02h-1.03v-2h1.03z" stroke="#5e5e5e" stroke-width=".05" fill="#5e5e5e"/><path d="M551.54 795.9l-12.92 7.64v-15.27z" stroke="#5e5e5e" stroke-width="2" fill="#fff"/><path d="M488.53 795.9h3.08m4.1 0h6.15m4.1 0h6.15m4.1 0h6.14m4.1 0h6.14m4.1 0h3.07" stroke="#5e5e5e" stroke-width="2" fill="none"/><path d="M488.56 796.9h-1.03v-2h1.03z" stroke="#5e5e5e" stroke-width=".05" fill="#5e5e5e"/><path d="M551.54 795.9l-12.92 7.64v-15.27z" stroke="#5e5e5e" stroke-width="2" fill="#fff"/><path d="M488.53 872.8h2.6m3.47 0h5.2m3.46 0h5.2m3.46 0h2.6l.94-.08.9-.22.88-.36m2.62-2.62l.36-.87.22-.92.08-.94v-3.25m0-4.33v-6.5m0-4.3v-6.5m0-4.32v-6.5m0-4.32v-6.5m0-4.3v-6.5m0-4.33v-3.24l.07-.93.2-.92.37-.87m2.62-2.62l.86-.36.92-.22.94-.07h3.97m5.28 0h3.97" stroke="#5e5e5e" stroke-width="2" fill="none"/><path d="M488.56 873.8h-1.03v-2h1.03z" stroke="#5e5e5e" stroke-width=".05" fill="#5e5e5e"/><path d="M551.54 795.9l-12.92 7.64v-15.27z" stroke="#5e5e5e" stroke-width="2" fill="#fff"/><defs><path fill="#333" d="M143 4C61 4 22-44 18-125c-5-107 100-154 193-111 17 8 29 25 37 43l-32 9c-13-25-37-40-76-40-61 0-88 39-88 99 0 61 29 100 91 101 35 0 62-11 79-27v-45h-74v-28h105v86C228-13 192 4 143 4" id="L"/><path fill="#333" d="M100-194c63 0 86 42 84 106H49c0 40 14 67 53 68 26 1 43-12 49-29l28 8c-11 28-37 45-77 45C44 4 14-33 15-96c1-61 26-98 85-98zm52 81c6-60-76-77-97-28-3 7-6 17-6 28h103" id="M"/><path fill="#333" d="M59-47c-2 24 18 29 38 22v24C64 9 27 4 27-40v-127H5v-23h24l9-43h21v43h35v23H59v120" id="N"/><g id="a"><use transform="matrix(0.06172839506172839,0,0,0.06172839506172839,0,0)" xlink:href="#L"/><use transform="matrix(0.06172839506172839,0,0,0.06172839506172839,17.28395061728395,0)" xlink:href="#M"/><use transform="matrix(0.06172839506172839,0,0,0.06172839506172839,29.629629629629626,0)" xlink:href="#N"/></g><path fill="#333" d="M141-36C126-15 110 5 73 4 37 3 15-17 15-53c-1-64 63-63 125-63 3-35-9-54-41-54-24 1-41 7-42 31l-33-3c5-37 33-52 76-52 45 0 72 20 72 64v82c-1 20 7 32 28 27v20c-31 9-61-2-59-35zM48-53c0 20 12 33 32 33 41-3 63-29 60-74-43 2-92-5-92 41" id="O"/><path fill="#333" d="M85-194c31 0 48 13 60 33l-1-100h32l1 261h-30c-2-10 0-23-3-31C134-8 116 4 85 4 32 4 16-35 15-94c0-66 23-100 70-100zm9 24c-40 0-46 34-46 75 0 40 6 74 45 74 42 0 51-32 51-76 0-42-9-74-50-73" id="P"/><path fill="#333" d="M114-163C36-179 61-72 57 0H25l-1-190h30c1 12-1 29 2 39 6-27 23-49 58-41v29" id="Q"/><path fill="#333" d="M135-143c-3-34-86-38-87 0 15 53 115 12 119 90S17 21 10-45l28-5c4 36 97 45 98 0-10-56-113-15-118-90-4-57 82-63 122-42 12 7 21 19 24 35" id="R"/><g id="b"><use transform="matrix(0.06172839506172839,0,0,0.06172839506172839,0,0)" xlink:href="#O"/><use transform="matrix(0.06172839506172839,0,0,0.06172839506172839,12.345679012345679,0)" xlink:href="#P"/><use transform="matrix(0.06172839506172839,0,0,0.06172839506172839,24.691358024691358,0)" xlink:href="#P"/><use transform="matrix(0.06172839506172839,0,0,0.06172839506172839,37.03703703703704,0)" xlink:href="#Q"/><use transform="matrix(0.06172839506172839,0,0,0.06172839506172839,44.382716049382715,0)" xlink:href="#M"/><use transform="matrix(0.06172839506172839,0,0,0.06172839506172839,56.72839506172839,0)" xlink:href="#R"/><use transform="matrix(0.06172839506172839,0,0,0.06172839506172839,67.8395061728395,0)" xlink:href="#R"/></g><path fill="#333" d="M24-231v-30h32v30H24zM24 0v-190h32V0H24" id="S"/><path fill="#333" d="M117-194c89-4 53 116 60 194h-32v-121c0-31-8-49-39-48C34-167 62-67 57 0H25l-1-190h30c1 10-1 24 2 32 11-22 29-35 61-36" id="T"/><path fill="#333" d="M101-234c-31-9-42 10-38 44h38v23H63V0H32v-167H5v-23h27c-7-52 17-82 69-68v24" id="U"/><path fill="#333" d="M100-194c62-1 85 37 85 99 1 63-27 99-86 99S16-35 15-95c0-66 28-99 85-99zM99-20c44 1 53-31 53-75 0-43-8-75-51-75s-53 32-53 75 10 74 51 75" id="V"/><g id="c"><use transform="matrix(0.06172839506172839,0,0,0.06172839506172839,0,0)" xlink:href="#S"/><use transform="matrix(0.06172839506172839,0,0,0.06172839506172839,4.876543209876543,0)" xlink:href="#T"/><use transform="matrix(0.06172839506172839,0,0,0.06172839506172839,17.22222222222222,0)" xlink:href="#U"/><use transform="matrix(0.06172839506172839,0,0,0.06172839506172839,23.39506172839506,0)" xlink:href="#V"/></g><path fill="#333" d="M30-248c87 1 191-15 191 75 0 78-77 80-158 76V0H30v-248zm33 125c57 0 124 11 124-50 0-59-68-47-124-48v98" id="W"/><g id="d"><use transform="matrix(0.06172839506172839,0,0,0.06172839506172839,0,0)" xlink:href="#W"/><use transform="matrix(0.06172839506172839,0,0,0.06172839506172839,14.814814814814813,0)" xlink:href="#M"/><use transform="matrix(0.06172839506172839,0,0,0.06172839506172839,27.160493827160494,0)" xlink:href="#Q"/><use transform="matrix(0.06172839506172839,0,0,0.06172839506172839,34.50617283950617,0)" xlink:href="#R"/><use transform="matrix(0.06172839506172839,0,0,0.06172839506172839,45.61728395061728,0)" xlink:href="#S"/><use transform="matrix(0.06172839506172839,0,0,0.06172839506172839,50.49382716049382,0)" xlink:href="#R"/><use transform="matrix(0.06172839506172839,0,0,0.06172839506172839,61.60493827160494,0)" xlink:href="#N"/><use transform="matrix(0.06172839506172839,0,0,0.06172839506172839,67.77777777777777,0)" xlink:href="#M"/><use transform="matrix(0.06172839506172839,0,0,0.06172839506172839,80.12345679012346,0)" xlink:href="#T"/><use transform="matrix(0.06172839506172839,0,0,0.06172839506172839,92.46913580246914,0)" xlink:href="#N"/></g><path fill="#333" d="M30-248c118-7 216 8 213 122C240-48 200 0 122 0H30v-248zM63-27c89 8 146-16 146-99s-60-101-146-95v194" id="X"/><path fill="#333" d="M115-194c53 0 69 39 70 98 0 66-23 100-70 100C84 3 66-7 56-30L54 0H23l1-261h32v101c10-23 28-34 59-34zm-8 174c40 0 45-34 45-75 0-40-5-75-45-74-42 0-51 32-51 76 0 43 10 73 51 73" id="Y"/><g id="e"><use transform="matrix(0.06172839506172839,0,0,0.06172839506172839,0,0)" xlink:href="#X"/><use transform="matrix(0.06172839506172839,0,0,0.06172839506172839,15.987654320987653,0)" xlink:href="#O"/><use transform="matrix(0.06172839506172839,0,0,0.06172839506172839,28.333333333333332,0)" xlink:href="#N"/><use transform="matrix(0.06172839506172839,0,0,0.06172839506172839,34.50617283950617,0)" xlink:href="#O"/><use transform="matrix(0.06172839506172839,0,0,0.06172839506172839,46.85185185185185,0)" xlink:href="#Y"/><use transform="matrix(0.06172839506172839,0,0,0.06172839506172839,59.197530864197525,0)" xlink:href="#O"/><use transform="matrix(0.06172839506172839,0,0,0.06172839506172839,71.5432098765432,0)" xlink:href="#R"/><use transform="matrix(0.06172839506172839,0,0,0.06172839506172839,82.65432098765432,0)" xlink:href="#M"/></g><path fill="#333" d="M185-189c-5-48-123-54-124 2 14 75 158 14 163 119 3 78-121 87-175 55-17-10-28-26-33-46l33-7c5 56 141 63 141-1 0-78-155-14-162-118-5-82 145-84 179-34 5 7 8 16 11 25" id="Z"/><path fill="#333" d="M96-169c-40 0-48 33-48 73s9 75 48 75c24 0 41-14 43-38l32 2c-6 37-31 61-74 61-59 0-76-41-82-99-10-93 101-131 147-64 4 7 5 14 7 22l-32 3c-4-21-16-35-41-35" id="aa"/><path fill="#333" d="M106-169C34-169 62-67 57 0H25v-261h32l-1 103c12-21 28-36 61-36 89 0 53 116 60 194h-32v-121c2-32-8-49-39-48" id="ab"/><g id="f"><use transform="matrix(0.06172839506172839,0,0,0.06172839506172839,0,0)" xlink:href="#Z"/><use transform="matrix(0.06172839506172839,0,0,0.06172839506172839,14.814814814814813,0)" xlink:href="#M"/><use transform="matrix(0.06172839506172839,0,0,0.06172839506172839,27.160493827160494,0)" xlink:href="#O"/><use transform="matrix(0.06172839506172839,0,0,0.06172839506172839,39.50617283950617,0)" xlink:href="#Q"/><use transform="matrix(0.06172839506172839,0,0,0.06172839506172839,46.85185185185185,0)" xlink:href="#aa"/><use transform="matrix(0.06172839506172839,0,0,0.06172839506172839,57.96296296296296,0)" xlink:href="#ab"/></g><path fill="#333" d="M233-177c-1 41-23 64-60 70L243 0h-38l-65-103H63V0H30v-248c88 3 205-21 203 71zM63-129c60-2 137 13 137-47 0-61-80-42-137-45v92" id="ac"/><path fill="#333" d="M205 0l-28-72H64L36 0H1l101-248h38L239 0h-34zm-38-99l-47-123c-12 45-31 82-46 123h93" id="ad"/><path fill="#333" d="M240 0l2-218c-23 76-54 145-80 218h-23L58-218 59 0H30v-248h44l77 211c21-75 51-140 76-211h43V0h-30" id="ae"/><g id="g"><use transform="matrix(0.06172839506172839,0,0,0.06172839506172839,0,0)" xlink:href="#ac"/><use transform="matrix(0.06172839506172839,0,0,0.06172839506172839,15.987654320987653,0)" xlink:href="#ad"/><use transform="matrix(0.06172839506172839,0,0,0.06172839506172839,30.80246913580247,0)" xlink:href="#ae"/></g><path fill="#333" d="M212-179c-10-28-35-45-73-45-59 0-87 40-87 99 0 60 29 101 89 101 43 0 62-24 78-52l27 14C228-24 195 4 139 4 59 4 22-46 18-125c-6-104 99-153 187-111 19 9 31 26 39 46" id="af"/><g id="h"><use transform="matrix(0.05,0,0,0.05,0,0)" xlink:href="#af"/><use transform="matrix(0.05,0,0,0.05,12.950000000000001,0)" xlink:href="#V"/><use transform="matrix(0.05,0,0,0.05,22.950000000000003,0)" xlink:href="#V"/><use transform="matrix(0.05,0,0,0.05,32.95,0)" xlink:href="#Q"/><use transform="matrix(0.05,0,0,0.05,38.900000000000006,0)" xlink:href="#P"/><use transform="matrix(0.05,0,0,0.05,48.900000000000006,0)" xlink:href="#S"/><use transform="matrix(0.05,0,0,0.05,52.85,0)" xlink:href="#T"/><use transform="matrix(0.05,0,0,0.05,62.85,0)" xlink:href="#O"/><use transform="matrix(0.05,0,0,0.05,72.85000000000001,0)" xlink:href="#N"/><use transform="matrix(0.05,0,0,0.05,77.85000000000001,0)" xlink:href="#M"/><use transform="matrix(0.05,0,0,0.05,87.85000000000001,0)" xlink:href="#R"/></g><path fill="#333" d="M63-220v92h138v28H63V0H30v-248h175v28H63" id="ag"/><path fill="#333" d="M84 4C-5 8 30-112 23-190h32v120c0 31 7 50 39 49 72-2 45-101 50-169h31l1 190h-30c-1-10 1-25-2-33-11 22-28 36-60 37" id="ah"/><path fill="#333" d="M103-251c84 0 111 97 45 133-19 10-37 24-39 52H78c0-63 77-55 77-114 0-30-21-42-52-43-32 0-53 17-56 46l-32-2c7-45 34-72 88-72zM77 0v-35h34V0H77" id="ai"/><g id="i"><use transform="matrix(0.06172839506172839,0,0,0.06172839506172839,0,0)" xlink:href="#ag"/><use transform="matrix(0.06172839506172839,0,0,0.06172839506172839,13.518518518518517,0)" xlink:href="#V"/><use transform="matrix(0.06172839506172839,0,0,0.06172839506172839,25.864197530864196,0)" xlink:href="#ah"/><use transform="matrix(0.06172839506172839,0,0,0.06172839506172839,38.20987654320987,0)" xlink:href="#T"/><use transform="matrix(0.06172839506172839,0,0,0.06172839506172839,50.55555555555555,0)" xlink:href="#P"/><use transform="matrix(0.06172839506172839,0,0,0.06172839506172839,62.90123456790123,0)" xlink:href="#ai"/></g><path fill="#333" d="M190 0L58-211 59 0H30v-248h39L202-35l-2-213h31V0h-41" id="aj"/><path fill="#333" d="M179-190L93 31C79 59 56 82 12 73V49c39 6 53-20 64-50L1-190h34L92-34l54-156h33" id="ak"/><g id="j"><use transform="matrix(0.05,0,0,0.05,0,0)" xlink:href="#aj"/><use transform="matrix(0.05,0,0,0.05,12.950000000000001,0)" xlink:href="#M"/><use transform="matrix(0.05,0,0,0.05,22.950000000000003,0)" xlink:href="#O"/><use transform="matrix(0.05,0,0,0.05,32.95,0)" xlink:href="#Q"/><use transform="matrix(0.05,0,0,0.05,38.900000000000006,0)" xlink:href="#Y"/><use transform="matrix(0.05,0,0,0.05,48.900000000000006,0)" xlink:href="#ak"/></g><path fill="#333" d="M24 0v-261h32V0H24" id="al"/><path fill="#333" d="M68-38c1 34 0 65-14 84H32c9-13 17-26 17-46H33v-38h35" id="am"/><g id="k"><use transform="matrix(0.05,0,0,0.05,0,0)" xlink:href="#al"/><use transform="matrix(0.05,0,0,0.05,3.95,0)" xlink:href="#V"/><use transform="matrix(0.05,0,0,0.05,13.949999999999998,0)" xlink:href="#aa"/><use transform="matrix(0.05,0,0,0.05,22.95,0)" xlink:href="#O"/><use transform="matrix(0.05,0,0,0.05,32.95,0)" xlink:href="#N"/><use transform="matrix(0.05,0,0,0.05,37.95,0)" xlink:href="#S"/><use transform="matrix(0.05,0,0,0.05,41.900000000000006,0)" xlink:href="#V"/><use transform="matrix(0.05,0,0,0.05,51.900000000000006,0)" xlink:href="#T"/><use transform="matrix(0.05,0,0,0.05,61.900000000000006,0)" xlink:href="#am"/></g><g id="l"><use transform="matrix(0.05,0,0,0.05,0,0)" xlink:href="#V"/><use transform="matrix(0.05,0,0,0.05,10,0)" xlink:href="#Q"/></g><path fill="#333" d="M109-170H84l-4-78h32zm-65 0H19l-4-78h33" id="an"/><path fill="#333" d="M140-251c81 0 123 46 123 126C263-46 219 4 140 4 59 4 17-45 17-125s42-126 123-126zm0 227c63 0 89-41 89-101s-29-99-89-99c-61 0-89 39-89 99S79-25 140-24" id="ao"/><path fill="#333" d="M127-220V0H93v-220H8v-28h204v28h-85" id="ap"/><g id="m"><use transform="matrix(0.05,0,0,0.05,0,0)" xlink:href="#an"/><use transform="matrix(0.05,0,0,0.05,6.3500000000000005,0)" xlink:href="#aj"/><use transform="matrix(0.05,0,0,0.05,19.3,0)" xlink:href="#ao"/><use transform="matrix(0.05,0,0,0.05,33.3,0)" xlink:href="#ap"/></g><path fill="#333" d="M232-93c-1 65-40 97-104 97C67 4 28-28 28-90v-158h33c8 89-33 224 67 224 102 0 64-133 71-224h33v155" id="aq"/><g id="n"><use transform="matrix(0.05,0,0,0.05,0,0)" xlink:href="#ag"/><use transform="matrix(0.05,0,0,0.05,10.950000000000001,0)" xlink:href="#ao"/><use transform="matrix(0.05,0,0,0.05,24.950000000000003,0)" xlink:href="#aq"/><use transform="matrix(0.05,0,0,0.05,37.900000000000006,0)" xlink:href="#aj"/><use transform="matrix(0.05,0,0,0.05,50.85000000000001,0)" xlink:href="#X"/><use transform="matrix(0.05,0,0,0.05,63.80000000000001,0)" xlink:href="#an"/></g><path fill="#333" d="M160-131c35 5 61 23 61 61C221 17 115-2 30 0v-248c76 3 177-17 177 60 0 33-19 50-47 57zm-97-11c50-1 110 9 110-42 0-47-63-36-110-37v79zm0 115c55-2 124 14 124-45 0-56-70-42-124-44v89" id="ar"/><g id="o"><use transform="matrix(0.06172839506172839,0,0,0.06172839506172839,0,0)" xlink:href="#X"/><use transform="matrix(0.06172839506172839,0,0,0.06172839506172839,15.987654320987653,0)" xlink:href="#ar"/></g><g id="p"><use transform="matrix(0.04938271604938272,0,0,0.04938271604938272,0,0)" xlink:href="#aj"/><use transform="matrix(0.04938271604938272,0,0,0.04938271604938272,12.790123456790125,0)" xlink:href="#V"/></g><g id="q"><use transform="matrix(0.06172839506172839,0,0,0.06172839506172839,0,0)" xlink:href="#Z"/><use transform="matrix(0.06172839506172839,0,0,0.06172839506172839,14.814814814814813,0)" xlink:href="#N"/><use transform="matrix(0.06172839506172839,0,0,0.06172839506172839,20.98765432098765,0)" xlink:href="#V"/><use transform="matrix(0.06172839506172839,0,0,0.06172839506172839,33.33333333333333,0)" xlink:href="#Q"/><use transform="matrix(0.06172839506172839,0,0,0.06172839506172839,40.679012345679006,0)" xlink:href="#M"/></g><g id="r"><use transform="matrix(0.06172839506172839,0,0,0.06172839506172839,0,0)" xlink:href="#O"/><use transform="matrix(0.06172839506172839,0,0,0.06172839506172839,12.345679012345679,0)" xlink:href="#P"/><use transform="matrix(0.06172839506172839,0,0,0.06172839506172839,24.691358024691358,0)" xlink:href="#P"/><use transform="matrix(0.06172839506172839,0,0,0.06172839506172839,37.03703703703704,0)" xlink:href="#Q"/><use transform="matrix(0.06172839506172839,0,0,0.06172839506172839,44.382716049382715,0)" xlink:href="#M"/><use transform="matrix(0.06172839506172839,0,0,0.06172839506172839,56.72839506172839,0)" xlink:href="#R"/><use transform="matrix(0.06172839506172839,0,0,0.06172839506172839,67.8395061728395,0)" xlink:href="#R"/></g><path fill="#333" d="M240-174c0 40-23 61-54 70L253 0h-59l-57-94H76V0H24v-248c93 4 217-23 216 74zM76-134c48-2 112 12 112-38 0-48-66-32-112-35v73" id="as"/><path fill="#333" d="M185-48c-13 30-37 53-82 52C43 2 14-33 14-96s30-98 90-98c62 0 83 45 84 108H66c0 31 8 55 39 56 18 0 30-7 34-22zm-45-69c5-46-57-63-70-21-2 6-4 13-4 21h74" id="at"/><path fill="#333" d="M133-34C117-15 103 5 69 4 32 3 11-16 11-54c-1-60 55-63 116-61 1-26-3-47-28-47-18 1-26 9-28 27l-52-2c7-38 36-58 82-57s74 22 75 68l1 82c-1 14 12 18 25 15v27c-30 8-71 5-69-32zm-48 3c29 0 43-24 42-57-32 0-66-3-65 30 0 17 8 27 23 27" id="au"/><path fill="#333" d="M88-194c31-1 46 15 58 34l-1-101h50l1 261h-48c-2-10 0-23-3-31C134-8 116 4 84 4 32 4 16-41 15-95c0-56 19-97 73-99zm17 164c33 0 40-30 41-66 1-37-9-64-41-64s-38 30-39 65c0 43 13 65 39 65" id="av"/><g id="s"><use transform="matrix(0.05,0,0,0.05,0,0)" xlink:href="#as"/><use transform="matrix(0.05,0,0,0.05,12.950000000000001,0)" xlink:href="#at"/><use transform="matrix(0.05,0,0,0.05,22.950000000000003,0)" xlink:href="#au"/><use transform="matrix(0.05,0,0,0.05,32.95,0)" xlink:href="#av"/></g><g id="t"><use transform="matrix(0.06172839506172839,0,0,0.06172839506172839,0,0)" xlink:href="#ac"/><use transform="matrix(0.06172839506172839,0,0,0.06172839506172839,15.987654320987653,0)" xlink:href="#M"/><use transform="matrix(0.06172839506172839,0,0,0.06172839506172839,28.333333333333332,0)" xlink:href="#N"/><use transform="matrix(0.06172839506172839,0,0,0.06172839506172839,34.50617283950617,0)" xlink:href="#ah"/><use transform="matrix(0.06172839506172839,0,0,0.06172839506172839,46.85185185185185,0)" xlink:href="#Q"/><use transform="matrix(0.06172839506172839,0,0,0.06172839506172839,54.197530864197525,0)" xlink:href="#T"/></g><path fill="#333" d="M210-169c-67 3-38 105-44 169h-31v-121c0-29-5-50-35-48C34-165 62-65 56 0H25l-1-190h30c1 10-1 24 2 32 10-44 99-50 107 0 11-21 27-35 58-36 85-2 47 119 55 194h-31v-121c0-29-5-49-35-48" id="aw"/><g id="u"><use transform="matrix(0.06172839506172839,0,0,0.06172839506172839,0,0)" xlink:href="#ae"/><use transform="matrix(0.06172839506172839,0,0,0.06172839506172839,18.456790123456788,0)" xlink:href="#M"/><use transform="matrix(0.06172839506172839,0,0,0.06172839506172839,30.80246913580247,0)" xlink:href="#aw"/><use transform="matrix(0.06172839506172839,0,0,0.06172839506172839,49.25925925925925,0)" xlink:href="#V"/><use transform="matrix(0.06172839506172839,0,0,0.06172839506172839,61.60493827160493,0)" xlink:href="#Q"/><use transform="matrix(0.06172839506172839,0,0,0.06172839506172839,68.9506172839506,0)" xlink:href="#ak"/></g><g id="v"><use transform="matrix(0.06172839506172839,0,0,0.06172839506172839,0,0)" xlink:href="#aa"/><use transform="matrix(0.06172839506172839,0,0,0.06172839506172839,11.11111111111111,0)" xlink:href="#O"/><use transform="matrix(0.06172839506172839,0,0,0.06172839506172839,23.45679012345679,0)" xlink:href="#aa"/><use transform="matrix(0.06172839506172839,0,0,0.06172839506172839,34.5679012345679,0)" xlink:href="#ab"/><use transform="matrix(0.06172839506172839,0,0,0.06172839506172839,46.913580246913575,0)" xlink:href="#M"/></g><path fill="#333" d="M137-103V0h-34v-103L8-248h37l75 118 75-118h37" id="ax"/><g id="w"><use transform="matrix(0.05,0,0,0.05,0,0)" xlink:href="#ax"/><use transform="matrix(0.05,0,0,0.05,10.35,0)" xlink:href="#M"/><use transform="matrix(0.05,0,0,0.05,20.35,0)" xlink:href="#R"/></g><g id="x"><use transform="matrix(0.06172839506172839,0,0,0.06172839506172839,0,0)" xlink:href="#af"/><use transform="matrix(0.06172839506172839,0,0,0.06172839506172839,15.987654320987653,0)" xlink:href="#O"/><use transform="matrix(0.06172839506172839,0,0,0.06172839506172839,28.333333333333332,0)" xlink:href="#al"/><use transform="matrix(0.06172839506172839,0,0,0.06172839506172839,33.20987654320987,0)" xlink:href="#al"/></g><path fill="#333" d="M141 0L90-78 38 0H4l68-98-65-92h35l48 74 47-74h35l-64 92 68 98h-35" id="ay"/><g id="y"><use transform="matrix(0.06172839506172839,0,0,0.06172839506172839,0,0)" xlink:href="#M"/><use transform="matrix(0.06172839506172839,0,0,0.06172839506172839,12.345679012345679,0)" xlink:href="#ay"/><use transform="matrix(0.06172839506172839,0,0,0.06172839506172839,23.45679012345679,0)" xlink:href="#N"/><use transform="matrix(0.06172839506172839,0,0,0.06172839506172839,29.62962962962963,0)" xlink:href="#M"/><use transform="matrix(0.06172839506172839,0,0,0.06172839506172839,41.97530864197531,0)" xlink:href="#Q"/><use transform="matrix(0.06172839506172839,0,0,0.06172839506172839,49.32098765432099,0)" xlink:href="#T"/><use transform="matrix(0.06172839506172839,0,0,0.06172839506172839,61.666666666666664,0)" xlink:href="#O"/><use transform="matrix(0.06172839506172839,0,0,0.06172839506172839,74.01234567901234,0)" xlink:href="#al"/></g><path fill="#333" d="M108 0H70L1-190h34L89-25l56-165h34" id="az"/><g id="z"><use transform="matrix(0.06172839506172839,0,0,0.06172839506172839,0,0)" xlink:href="#R"/><use transform="matrix(0.06172839506172839,0,0,0.06172839506172839,11.11111111111111,0)" xlink:href="#M"/><use transform="matrix(0.06172839506172839,0,0,0.06172839506172839,23.45679012345679,0)" xlink:href="#Q"/><use transform="matrix(0.06172839506172839,0,0,0.06172839506172839,30.80246913580247,0)" xlink:href="#az"/><use transform="matrix(0.06172839506172839,0,0,0.06172839506172839,41.91358024691358,0)" xlink:href="#S"/><use transform="matrix(0.06172839506172839,0,0,0.06172839506172839,46.79012345679013,0)" xlink:href="#aa"/><use transform="matrix(0.06172839506172839,0,0,0.06172839506172839,57.90123456790124,0)" xlink:href="#M"/></g><g id="A"><use transform="matrix(0.05,0,0,0.05,0,0)" xlink:href="#aj"/><use transform="matrix(0.05,0,0,0.05,12.950000000000001,0)" xlink:href="#V"/></g><g id="B"><use transform="matrix(0.05,0,0,0.05,0,0)" xlink:href="#ax"/><use transform="matrix(0.05,0,0,0.05,10.35,0)" xlink:href="#M"/><use transform="matrix(0.05,0,0,0.05,20.35,0)" xlink:href="#R"/></g><path fill="#333" d="M275 0h-61l-44-196L126 0H64L0-248h53L97-49l45-199h58l43 199 44-199h52" id="aA"/><path fill="#333" d="M135-150c-39-12-60 13-60 57V0H25l-1-190h47c2 13-1 29 3 40 6-28 27-53 61-41v41" id="aB"/><path fill="#333" d="M25-224v-37h50v37H25zM25 0v-190h50V0H25" id="aC"/><path fill="#333" d="M115-3C79 11 28 4 28-45v-112H4v-33h27l15-45h31v45h36v33H77v99c-1 23 16 31 38 25v30" id="aD"/><g id="C"><use transform="matrix(0.05,0,0,0.05,0,0)" xlink:href="#aA"/><use transform="matrix(0.05,0,0,0.05,16.599999999999998,0)" xlink:href="#aB"/><use transform="matrix(0.05,0,0,0.05,23.599999999999998,0)" xlink:href="#aC"/><use transform="matrix(0.05,0,0,0.05,28.599999999999994,0)" xlink:href="#aD"/><use transform="matrix(0.05,0,0,0.05,34.55,0)" xlink:href="#at"/></g><g id="D"><use transform="matrix(0.06172839506172839,0,0,0.06172839506172839,0,0)" xlink:href="#ac"/><use transform="matrix(0.06172839506172839,0,0,0.06172839506172839,15.987654320987653,0)" xlink:href="#M"/><use transform="matrix(0.06172839506172839,0,0,0.06172839506172839,28.333333333333332,0)" xlink:href="#N"/><use transform="matrix(0.06172839506172839,0,0,0.06172839506172839,34.50617283950617,0)" xlink:href="#ah"/><use transform="matrix(0.06172839506172839,0,0,0.06172839506172839,46.85185185185185,0)" xlink:href="#Q"/><use transform="matrix(0.06172839506172839,0,0,0.06172839506172839,54.197530864197525,0)" xlink:href="#T"/></g><g id="E"><use transform="matrix(0.06172839506172839,0,0,0.06172839506172839,0,0)" xlink:href="#an"/><use transform="matrix(0.06172839506172839,0,0,0.06172839506172839,7.8395061728395055,0)" xlink:href="#T"/><use transform="matrix(0.06172839506172839,0,0,0.06172839506172839,20.185185185185183,0)" xlink:href="#V"/><use transform="matrix(0.06172839506172839,0,0,0.06172839506172839,32.53086419753086,0)" xlink:href="#N"/></g><g id="F"><use transform="matrix(0.06172839506172839,0,0,0.06172839506172839,0,0)" xlink:href="#U"/><use transform="matrix(0.06172839506172839,0,0,0.06172839506172839,6.172839506172839,0)" xlink:href="#V"/><use transform="matrix(0.06172839506172839,0,0,0.06172839506172839,18.51851851851852,0)" xlink:href="#ah"/><use transform="matrix(0.06172839506172839,0,0,0.06172839506172839,30.864197530864196,0)" xlink:href="#T"/><use transform="matrix(0.06172839506172839,0,0,0.06172839506172839,43.20987654320987,0)" xlink:href="#P"/><use transform="matrix(0.06172839506172839,0,0,0.06172839506172839,55.55555555555555,0)" xlink:href="#an"/></g><g id="G"><use transform="matrix(0.05,0,0,0.05,0,0)" xlink:href="#aj"/><use transform="matrix(0.05,0,0,0.05,12.950000000000001,0)" xlink:href="#V"/></g><path fill="#6f7681" d="M70-104c-4 71 81 81 132 50l8-40h-60l7-37h108L246-31C216-10 181 3 130 3 60 2 18-32 18-102c-1-106 79-169 188-144 33 8 53 31 63 63l-50 14c-6-26-25-42-56-42-62 0-89 43-93 107" id="aE"/><path fill="#6f7681" d="M124-194c51 0 84 22 84 74C207-44 167 4 94 4 43 4 11-23 11-74c0-74 41-120 113-120zM99-30c46 0 58-42 58-86 0-27-11-44-37-44-44 0-55 40-57 84-1 27 10 45 36 46" id="aF"/><path fill="#6f7681" d="M45-171c29-32 103-29 114 14 2-11 5-23 8-33h47L176-2c-3 70-92 96-155 64C9 56 1 42-1 25l50-5c2 28 48 27 63 11 13-13 20-45 21-66-13 20-30 35-62 36-87 3-60-134-26-172zM94-35c41-3 55-43 55-86 0-24-12-39-35-39-43 0-51 48-51 90 0 22 9 37 31 35" id="aG"/><path fill="#6f7681" d="M6 0l51-261h49L55 0H6" id="aH"/><path fill="#6f7681" d="M114-194c63-2 87 48 72 110H63c-3 28 1 55 31 54 21-1 32-13 37-29l44 13C160-14 137 4 91 4 41 4 11-22 11-73c0-71 33-119 103-121zm30 77c14-47-50-61-67-22-3 6-6 13-8 22h75" id="aI"/><g id="H"><use transform="matrix(0.06172839506172839,0,0,0.06172839506172839,0,0)" xlink:href="#aE"/><use transform="matrix(0.06172839506172839,0,0,0.06172839506172839,17.28395061728395,0)" xlink:href="#aF"/><use transform="matrix(0.06172839506172839,0,0,0.06172839506172839,30.80246913580247,0)" xlink:href="#aF"/><use transform="matrix(0.06172839506172839,0,0,0.06172839506172839,44.32098765432099,0)" xlink:href="#aG"/><use transform="matrix(0.06172839506172839,0,0,0.06172839506172839,57.839506172839506,0)" xlink:href="#aH"/><use transform="matrix(0.06172839506172839,0,0,0.06172839506172839,64.01234567901234,0)" xlink:href="#aI"/></g><path fill="#6f7681" d="M212 0l43-212L151 0h-37L90-212C82-137 65-70 52 0H6l48-248h70l20 187 93-187h69L258 0h-46" id="aJ"/><path fill="#6f7681" d="M166-52c-4 17 5 29 24 23l-3 27c-30 11-74 1-67-34C105-15 91 4 56 4 23 4 3-15 2-49c0-64 63-67 128-67 10-22 3-53-29-45-13 3-22 10-25 24l-46-5c5-64 156-77 153 0-1 33-11 60-17 90zM97-88c-44-9-64 57-19 57 31 0 42-28 47-57H97" id="aK"/><path fill="#6f7681" d="M156-122c2-23-7-37-28-37-47 0-58 44-58 89 0 24 12 40 36 40 43 0 47-49 50-92zM-8 75l50-265h48c0 10-3 24-3 30 22-50 127-45 121 29-6 73-21 135-92 135-29 0-46-14-55-35L41 75H-8" id="aL"/><path fill="#6f7681" d="M144-137c-1-29-70-35-71-2 16 41 103 10 103 80C176 9 79 16 32-9 18-17 9-31 4-48l44-6c3 32 80 36 82 1-15-42-103-11-103-82 0-77 157-79 161-8" id="aM"/><g id="I"><use transform="matrix(0.06172839506172839,0,0,0.06172839506172839,0,0)" xlink:href="#aJ"/><use transform="matrix(0.06172839506172839,0,0,0.06172839506172839,18.456790123456788,0)" xlink:href="#aK"/><use transform="matrix(0.06172839506172839,0,0,0.06172839506172839,30.80246913580247,0)" xlink:href="#aL"/><use transform="matrix(0.06172839506172839,0,0,0.06172839506172839,44.32098765432099,0)" xlink:href="#aM"/></g><path fill="#6f7681" d="M168 0l21-106H79L58 0H6l48-248h52l-19 99h110l19-99h50L218 0h-50" id="aN"/><path fill="#6f7681" d="M6 0l48-248h195l-8 40H98l-12 63h132l-7 40H79L66-40h150l-8 40H6" id="aO"/><path fill="#6f7681" d="M258-177c0 46-32 67-71 75L235 0h-57l-41-94H76L58 0H6l48-248c89 2 204-19 204 71zm-53 3c0-46-63-30-107-33l-14 73c51-2 120 13 121-40" id="aP"/><g id="J"><use transform="matrix(0.06172839506172839,0,0,0.06172839506172839,0,0)" xlink:href="#aN"/><use transform="matrix(0.06172839506172839,0,0,0.06172839506172839,15.987654320987653,0)" xlink:href="#aO"/><use transform="matrix(0.06172839506172839,0,0,0.06172839506172839,30.80246913580247,0)" xlink:href="#aP"/><use transform="matrix(0.06172839506172839,0,0,0.06172839506172839,46.79012345679012,0)" xlink:href="#aO"/></g><path fill="#6f7681" d="M155 0L90-199 52 0H6l48-248h62l66 201 38-201h46L218 0h-63" id="aQ"/><path fill="#6f7681" d="M255-194c90 0 29 129 24 194h-49l25-136c-7-39-53-14-60 9-12 38-18 85-28 127h-49l25-136c2-29-39-23-50-7C69-108 68-47 56 0H6l36-190h48c-1 10-6 24-4 32 12-20 27-36 57-36s46 15 50 41c14-21 29-41 62-41" id="aR"/><path fill="#6f7681" d="M50-224l7-37h49l-7 37H50zM6 0l37-190h49L55 0H6" id="aS"/><path fill="#6f7681" d="M151-194c95 0 34 128 28 194h-49l25-134c0-29-45-25-59-9C67-111 69-48 56 0H6l36-190h47l-4 32c15-20 33-36 66-36" id="aT"/><path fill="#6f7681" d="M72-63c-8 23 5 39 32 30L98-1C54 14 12-6 23-64l18-93H15l7-33h28l24-45h31l-8 45h35l-6 33H90" id="aU"/><g id="K"><use transform="matrix(0.06172839506172839,0,0,0.06172839506172839,0,0)" xlink:href="#aQ"/><use transform="matrix(0.06172839506172839,0,0,0.06172839506172839,15.987654320987653,0)" xlink:href="#aF"/><use transform="matrix(0.06172839506172839,0,0,0.06172839506172839,29.50617283950617,0)" xlink:href="#aR"/><use transform="matrix(0.06172839506172839,0,0,0.06172839506172839,49.25925925925925,0)" xlink:href="#aS"/><use transform="matrix(0.06172839506172839,0,0,0.06172839506172839,55.432098765432094,0)" xlink:href="#aT"/><use transform="matrix(0.06172839506172839,0,0,0.06172839506172839,68.9506172839506,0)" xlink:href="#aK"/><use transform="matrix(0.06172839506172839,0,0,0.06172839506172839,81.29629629629629,0)" xlink:href="#aU"/><use transform="matrix(0.06172839506172839,0,0,0.06172839506172839,88.64197530864197,0)" xlink:href="#aS"/><use transform="matrix(0.06172839506172839,0,0,0.06172839506172839,94.81481481481481,0)" xlink:href="#aR"/></g></defs></g></svg>